<mxfile host="app.diagrams.net" modified="2023-08-22T07:18:17.944Z" agent="Mozilla/5.0 (Windows NT 10.0; Win64; x64) AppleWebKit/537.36 (KHTML, like Gecko) Chrome/116.0.0.0 Safari/537.36" etag="SvVhI2JUKmyL9mDAvCI2" version="21.6.8" type="github">
  <diagram name="Page-1" id="zMVLX4KjyG8W3su1vkM5">
    <mxGraphModel dx="708" dy="435" grid="1" gridSize="10" guides="1" tooltips="1" connect="1" arrows="1" fold="1" page="1" pageScale="1" pageWidth="850" pageHeight="1100" math="0" shadow="0">
      <root>
        <mxCell id="0" />
        <mxCell id="1" parent="0" />
        <mxCell id="OnxvR2Oj6HQ96Rv20HvF-1" value="&lt;b&gt;&lt;i&gt;Player2&lt;br&gt;(user)&lt;/i&gt;&lt;/b&gt;" style="shape=umlActor;verticalLabelPosition=bottom;verticalAlign=top;html=1;outlineConnect=0;" vertex="1" parent="1">
          <mxGeometry x="670" y="330" width="60" height="105" as="geometry" />
        </mxCell>
        <mxCell id="OnxvR2Oj6HQ96Rv20HvF-14" value="" style="rounded=0;whiteSpace=wrap;html=1;" vertex="1" parent="1">
          <mxGeometry x="230" y="65" width="330" height="360" as="geometry" />
        </mxCell>
        <mxCell id="OnxvR2Oj6HQ96Rv20HvF-16" value="" style="ellipse;whiteSpace=wrap;html=1;fontStyle=1" vertex="1" parent="1">
          <mxGeometry x="310" y="140" width="160" height="80" as="geometry" />
        </mxCell>
        <mxCell id="OnxvR2Oj6HQ96Rv20HvF-17" value="" style="ellipse;whiteSpace=wrap;html=1;fontStyle=1" vertex="1" parent="1">
          <mxGeometry x="315" y="280" width="160" height="80" as="geometry" />
        </mxCell>
        <mxCell id="OnxvR2Oj6HQ96Rv20HvF-18" value="Komputer" style="shape=umlActor;verticalLabelPosition=bottom;verticalAlign=top;html=1;outlineConnect=0;fontStyle=3" vertex="1" parent="1">
          <mxGeometry x="40" y="200" width="60" height="100" as="geometry" />
        </mxCell>
        <mxCell id="OnxvR2Oj6HQ96Rv20HvF-20" value="" style="endArrow=none;html=1;rounded=0;fontStyle=1;fontFamily=Comic Sans MS;" edge="1" parent="1" target="OnxvR2Oj6HQ96Rv20HvF-16">
          <mxGeometry width="50" height="50" relative="1" as="geometry">
            <mxPoint x="90" y="260" as="sourcePoint" />
            <mxPoint x="200" y="240" as="targetPoint" />
            <Array as="points">
              <mxPoint x="240" y="190" />
            </Array>
          </mxGeometry>
        </mxCell>
        <mxCell id="OnxvR2Oj6HQ96Rv20HvF-21" value="" style="endArrow=none;html=1;rounded=0;exitX=1;exitY=0.5;exitDx=0;exitDy=0;" edge="1" parent="1" source="OnxvR2Oj6HQ96Rv20HvF-17">
          <mxGeometry width="50" height="50" relative="1" as="geometry">
            <mxPoint x="510" y="390" as="sourcePoint" />
            <mxPoint x="670" y="390" as="targetPoint" />
            <Array as="points">
              <mxPoint x="530" y="320" />
            </Array>
          </mxGeometry>
        </mxCell>
        <mxCell id="OnxvR2Oj6HQ96Rv20HvF-39" value="GAME TEBAK ANGKA" style="text;html=1;strokeColor=none;fillColor=none;align=center;verticalAlign=middle;whiteSpace=wrap;rounded=0;fontStyle=7;labelBackgroundColor=none;fontSize=20;" vertex="1" parent="1">
          <mxGeometry x="282.5" y="80" width="225" height="30" as="geometry" />
        </mxCell>
        <mxCell id="OnxvR2Oj6HQ96Rv20HvF-40" value="Tebak angka" style="text;html=1;strokeColor=none;fillColor=none;align=center;verticalAlign=middle;whiteSpace=wrap;rounded=0;fontStyle=3;fontSize=16;" vertex="1" parent="1">
          <mxGeometry x="332.5" y="292.5" width="115" height="55" as="geometry" />
        </mxCell>
        <mxCell id="OnxvR2Oj6HQ96Rv20HvF-45" value="Random angka" style="text;html=1;strokeColor=none;fillColor=none;align=center;verticalAlign=middle;whiteSpace=wrap;rounded=0;fontSize=16;fontStyle=3" vertex="1" parent="1">
          <mxGeometry x="330" y="165" width="120" height="30" as="geometry" />
        </mxCell>
      </root>
    </mxGraphModel>
  </diagram>
</mxfile>
